<svg xmlns="http://www.w3.org/2000/svg" viewBox="0 0 64 64"><defs><linearGradient id="g" x1="0" y1="0" x2="1" y2="1"><stop stop-color="#8eeaff"/><stop offset=".55" stop-color="#3fb8ff"/><stop offset="1" stop-color="#8b63ff"/></linearGradient></defs><rect x="2" y="2" width="60" height="60" rx="18" fill="#07111d" stroke="url(#g)" stroke-width="1.5"/><path d="M12 38c4-15 12-24 20-24s16 9 20 24" fill="none" stroke="url(#g)" stroke-width="2.2"/><path d="M16 39c5-8 10-12 16-12s11 4 16 12" fill="none" stroke="#d9f8ff" stroke-opacity=".45"/><path d="M25 22v21M39 22v21M28 25c-3 3-4 6-4 9s1 6 4 9M36 25c3 3 4 6 4 9s-1 6-4 9" fill="none" stroke="#d9f8ff" stroke-width="1.5"/><circle cx="32" cy="47" r="3" fill="#69ddff"/></svg>
